<mxfile host="app.diagrams.net" modified="2023-12-29T13:30:49.037Z" agent="Mozilla/5.0 (Windows NT 10.0; Win64; x64) AppleWebKit/537.36 (KHTML, like Gecko) Chrome/120.0.0.0 Safari/537.36" etag="zpVpyqgi9clUrL_JW7Xv" version="22.1.16" type="github">
  <diagram id="C5RBs43oDa-KdzZeNtuy" name="Page-1">
    <mxGraphModel dx="1208" dy="1627" grid="1" gridSize="10" guides="1" tooltips="1" connect="1" arrows="1" fold="1" page="1" pageScale="1" pageWidth="1169" pageHeight="827" math="0" shadow="0">
      <root>
        <mxCell id="WIyWlLk6GJQsqaUBKTNV-0" />
        <mxCell id="WIyWlLk6GJQsqaUBKTNV-1" parent="WIyWlLk6GJQsqaUBKTNV-0" />
        <mxCell id="Q-gjGeeIeIOGA0u1RUc8-88" value="" style="rounded=1;whiteSpace=wrap;html=1;" parent="WIyWlLk6GJQsqaUBKTNV-1" vertex="1">
          <mxGeometry x="10" y="-190" width="1200" height="830" as="geometry" />
        </mxCell>
        <mxCell id="Q-gjGeeIeIOGA0u1RUc8-86" value="" style="rounded=1;whiteSpace=wrap;html=1;" parent="WIyWlLk6GJQsqaUBKTNV-1" vertex="1">
          <mxGeometry y="-610" width="1200" height="380" as="geometry" />
        </mxCell>
        <mxCell id="Q-gjGeeIeIOGA0u1RUc8-0" value="&lt;h1&gt;member&lt;/h1&gt;" style="rounded=0;whiteSpace=wrap;html=1;fillColor=#d5e8d4;strokeColor=#82b366;" parent="WIyWlLk6GJQsqaUBKTNV-1" vertex="1">
          <mxGeometry x="21" y="-555" width="120" height="60" as="geometry" />
        </mxCell>
        <mxCell id="Q-gjGeeIeIOGA0u1RUc8-59" value="" style="edgeStyle=orthogonalEdgeStyle;rounded=0;orthogonalLoop=1;jettySize=auto;html=1;" parent="WIyWlLk6GJQsqaUBKTNV-1" source="Q-gjGeeIeIOGA0u1RUc8-1" target="Q-gjGeeIeIOGA0u1RUc8-56" edge="1">
          <mxGeometry relative="1" as="geometry" />
        </mxCell>
        <mxCell id="Q-gjGeeIeIOGA0u1RUc8-1" value="&lt;h1&gt;manager&lt;/h1&gt;" style="rounded=0;whiteSpace=wrap;html=1;fillColor=#d5e8d4;strokeColor=#82b366;" parent="WIyWlLk6GJQsqaUBKTNV-1" vertex="1">
          <mxGeometry x="173.5" y="720" width="120" height="60" as="geometry" />
        </mxCell>
        <mxCell id="Q-gjGeeIeIOGA0u1RUc8-4" value="이용자 회원가입" style="rounded=0;whiteSpace=wrap;html=1;fillColor=#ffe6cc;strokeColor=#d79b00;" parent="WIyWlLk6GJQsqaUBKTNV-1" vertex="1">
          <mxGeometry x="141" y="-555" width="120" height="60" as="geometry" />
        </mxCell>
        <mxCell id="Q-gjGeeIeIOGA0u1RUc8-8" value="관리자 회원가입" style="rounded=0;whiteSpace=wrap;html=1;fillColor=#ffe6cc;strokeColor=#d79b00;" parent="WIyWlLk6GJQsqaUBKTNV-1" vertex="1">
          <mxGeometry x="141" y="-335" width="120" height="60" as="geometry" />
        </mxCell>
        <mxCell id="Q-gjGeeIeIOGA0u1RUc8-12" value="할일 제목 조회" style="rounded=0;whiteSpace=wrap;html=1;fontFamily=Tahoma;fillColor=#ffe6cc;strokeColor=#d79b00;" parent="WIyWlLk6GJQsqaUBKTNV-1" vertex="1">
          <mxGeometry x="143" y="35" width="120" height="60" as="geometry" />
        </mxCell>
        <mxCell id="Q-gjGeeIeIOGA0u1RUc8-16" value="할일 세부사항 조회" style="rounded=0;whiteSpace=wrap;html=1;fontFamily=Tahoma;fillColor=#ffe6cc;strokeColor=#d79b00;" parent="WIyWlLk6GJQsqaUBKTNV-1" vertex="1">
          <mxGeometry x="890" y="35" width="120" height="60" as="geometry" />
        </mxCell>
        <mxCell id="Q-gjGeeIeIOGA0u1RUc8-20" value="할일 제목이 있어야&lt;br&gt;할일 세부사항 작성 가능" style="rounded=0;whiteSpace=wrap;html=1;fillColor=#dae8fc;strokeColor=#6c8ebf;" parent="WIyWlLk6GJQsqaUBKTNV-1" vertex="1">
          <mxGeometry x="585" y="80" width="140" height="60" as="geometry" />
        </mxCell>
        <mxCell id="Q-gjGeeIeIOGA0u1RUc8-21" value="할일 삭제시&lt;br&gt;할일 세부사항 자동 삭제" style="rounded=0;whiteSpace=wrap;html=1;fillColor=#dae8fc;strokeColor=#6c8ebf;" parent="WIyWlLk6GJQsqaUBKTNV-1" vertex="1">
          <mxGeometry x="480" y="460" width="140" height="60" as="geometry" />
        </mxCell>
        <mxCell id="Q-gjGeeIeIOGA0u1RUc8-22" value="&lt;h1&gt;user&lt;/h1&gt;" style="rounded=0;whiteSpace=wrap;html=1;fillColor=#fff2cc;strokeColor=#d6b656;" parent="WIyWlLk6GJQsqaUBKTNV-1" vertex="1">
          <mxGeometry x="480" y="-660" width="230" height="90" as="geometry" />
        </mxCell>
        <mxCell id="Q-gjGeeIeIOGA0u1RUc8-48" value="이용자 회원가입됨" style="rounded=0;whiteSpace=wrap;html=1;fillColor=#e1d5e7;strokeColor=#9673a6;" parent="WIyWlLk6GJQsqaUBKTNV-1" vertex="1">
          <mxGeometry x="261" y="-555" width="120" height="60" as="geometry" />
        </mxCell>
        <mxCell id="Q-gjGeeIeIOGA0u1RUc8-49" value="&lt;h1&gt;member&lt;/h1&gt;" style="rounded=0;whiteSpace=wrap;html=1;fillColor=#d5e8d4;strokeColor=#82b366;" parent="WIyWlLk6GJQsqaUBKTNV-1" vertex="1">
          <mxGeometry x="421" y="-555" width="120" height="60" as="geometry" />
        </mxCell>
        <mxCell id="Q-gjGeeIeIOGA0u1RUc8-50" value="이용자 로그인" style="rounded=0;whiteSpace=wrap;html=1;fillColor=#ffe6cc;strokeColor=#d79b00;" parent="WIyWlLk6GJQsqaUBKTNV-1" vertex="1">
          <mxGeometry x="541" y="-555" width="120" height="60" as="geometry" />
        </mxCell>
        <mxCell id="Q-gjGeeIeIOGA0u1RUc8-51" value="이용자 로그인됨" style="rounded=0;whiteSpace=wrap;html=1;fillColor=#e1d5e7;strokeColor=#9673a6;" parent="WIyWlLk6GJQsqaUBKTNV-1" vertex="1">
          <mxGeometry x="661" y="-555" width="120" height="60" as="geometry" />
        </mxCell>
        <mxCell id="Q-gjGeeIeIOGA0u1RUc8-52" value="&lt;h1&gt;member&lt;/h1&gt;" style="rounded=0;whiteSpace=wrap;html=1;fillColor=#d5e8d4;strokeColor=#82b366;" parent="WIyWlLk6GJQsqaUBKTNV-1" vertex="1">
          <mxGeometry x="821" y="-555" width="120" height="60" as="geometry" />
        </mxCell>
        <mxCell id="Q-gjGeeIeIOGA0u1RUc8-53" value="이용자 로그아웃" style="rounded=0;whiteSpace=wrap;html=1;fillColor=#ffe6cc;strokeColor=#d79b00;" parent="WIyWlLk6GJQsqaUBKTNV-1" vertex="1">
          <mxGeometry x="941" y="-555" width="120" height="60" as="geometry" />
        </mxCell>
        <mxCell id="Q-gjGeeIeIOGA0u1RUc8-54" value="이용자 로그아웃됨" style="rounded=0;whiteSpace=wrap;html=1;fillColor=#e1d5e7;strokeColor=#9673a6;" parent="WIyWlLk6GJQsqaUBKTNV-1" vertex="1">
          <mxGeometry x="1061" y="-555" width="120" height="60" as="geometry" />
        </mxCell>
        <mxCell id="Q-gjGeeIeIOGA0u1RUc8-55" value="&lt;h1&gt;member&lt;/h1&gt;" style="rounded=0;whiteSpace=wrap;html=1;fillColor=#d5e8d4;strokeColor=#82b366;" parent="WIyWlLk6GJQsqaUBKTNV-1" vertex="1">
          <mxGeometry x="173.5" y="660" width="120" height="60" as="geometry" />
        </mxCell>
        <mxCell id="Q-gjGeeIeIOGA0u1RUc8-58" value="" style="edgeStyle=orthogonalEdgeStyle;rounded=0;orthogonalLoop=1;jettySize=auto;html=1;" parent="WIyWlLk6GJQsqaUBKTNV-1" source="Q-gjGeeIeIOGA0u1RUc8-56" target="Q-gjGeeIeIOGA0u1RUc8-55" edge="1">
          <mxGeometry relative="1" as="geometry" />
        </mxCell>
        <mxCell id="Q-gjGeeIeIOGA0u1RUc8-56" value="&lt;h1&gt;Actor&lt;/h1&gt;" style="rounded=0;whiteSpace=wrap;html=1;fillColor=#60a917;strokeColor=#2D7600;fontColor=#ffffff;" parent="WIyWlLk6GJQsqaUBKTNV-1" vertex="1">
          <mxGeometry y="660" width="120" height="60" as="geometry" />
        </mxCell>
        <mxCell id="Q-gjGeeIeIOGA0u1RUc8-62" value="" style="edgeStyle=orthogonalEdgeStyle;rounded=0;orthogonalLoop=1;jettySize=auto;html=1;" parent="WIyWlLk6GJQsqaUBKTNV-1" source="Q-gjGeeIeIOGA0u1RUc8-60" target="Q-gjGeeIeIOGA0u1RUc8-61" edge="1">
          <mxGeometry relative="1" as="geometry" />
        </mxCell>
        <mxCell id="Q-gjGeeIeIOGA0u1RUc8-60" value="&lt;h1&gt;Event&lt;/h1&gt;" style="rounded=0;whiteSpace=wrap;html=1;fillColor=#f0a30a;strokeColor=#BD7000;fontColor=#000000;" parent="WIyWlLk6GJQsqaUBKTNV-1" vertex="1">
          <mxGeometry x="320" y="660" width="120" height="60" as="geometry" />
        </mxCell>
        <mxCell id="Q-gjGeeIeIOGA0u1RUc8-61" value="이용자 로그인" style="rounded=0;whiteSpace=wrap;html=1;fillColor=#ffe6cc;strokeColor=#d79b00;" parent="WIyWlLk6GJQsqaUBKTNV-1" vertex="1">
          <mxGeometry x="480" y="660" width="120" height="60" as="geometry" />
        </mxCell>
        <mxCell id="Q-gjGeeIeIOGA0u1RUc8-63" value="할일 제목이 있어야&lt;br&gt;할일 세부사항 작성 가능" style="rounded=0;whiteSpace=wrap;html=1;fillColor=#dae8fc;strokeColor=#6c8ebf;" parent="WIyWlLk6GJQsqaUBKTNV-1" vertex="1">
          <mxGeometry x="480" y="750" width="140" height="60" as="geometry" />
        </mxCell>
        <mxCell id="Q-gjGeeIeIOGA0u1RUc8-65" value="" style="edgeStyle=orthogonalEdgeStyle;rounded=0;orthogonalLoop=1;jettySize=auto;html=1;" parent="WIyWlLk6GJQsqaUBKTNV-1" source="Q-gjGeeIeIOGA0u1RUc8-64" target="Q-gjGeeIeIOGA0u1RUc8-63" edge="1">
          <mxGeometry relative="1" as="geometry" />
        </mxCell>
        <mxCell id="Q-gjGeeIeIOGA0u1RUc8-64" value="&lt;h1&gt;Policy&lt;/h1&gt;" style="rounded=0;whiteSpace=wrap;html=1;fillColor=#1ba1e2;strokeColor=#006EAF;fontColor=#ffffff;" parent="WIyWlLk6GJQsqaUBKTNV-1" vertex="1">
          <mxGeometry x="320" y="750" width="120" height="60" as="geometry" />
        </mxCell>
        <mxCell id="Q-gjGeeIeIOGA0u1RUc8-66" value="이용자 회원가입됨" style="rounded=0;whiteSpace=wrap;html=1;fillColor=#e1d5e7;strokeColor=#9673a6;" parent="WIyWlLk6GJQsqaUBKTNV-1" vertex="1">
          <mxGeometry x="800" y="660" width="120" height="60" as="geometry" />
        </mxCell>
        <mxCell id="Q-gjGeeIeIOGA0u1RUc8-68" value="" style="edgeStyle=orthogonalEdgeStyle;rounded=0;orthogonalLoop=1;jettySize=auto;html=1;" parent="WIyWlLk6GJQsqaUBKTNV-1" source="Q-gjGeeIeIOGA0u1RUc8-67" target="Q-gjGeeIeIOGA0u1RUc8-66" edge="1">
          <mxGeometry relative="1" as="geometry" />
        </mxCell>
        <mxCell id="Q-gjGeeIeIOGA0u1RUc8-67" value="&lt;h1&gt;Command&lt;/h1&gt;" style="rounded=0;whiteSpace=wrap;html=1;fillColor=#6a00ff;strokeColor=#3700CC;fontColor=#ffffff;" parent="WIyWlLk6GJQsqaUBKTNV-1" vertex="1">
          <mxGeometry x="640" y="660" width="120" height="60" as="geometry" />
        </mxCell>
        <mxCell id="Q-gjGeeIeIOGA0u1RUc8-71" value="" style="edgeStyle=orthogonalEdgeStyle;rounded=0;orthogonalLoop=1;jettySize=auto;html=1;" parent="WIyWlLk6GJQsqaUBKTNV-1" source="Q-gjGeeIeIOGA0u1RUc8-69" target="Q-gjGeeIeIOGA0u1RUc8-70" edge="1">
          <mxGeometry relative="1" as="geometry" />
        </mxCell>
        <mxCell id="Q-gjGeeIeIOGA0u1RUc8-69" value="&lt;h1&gt;Aggregate&lt;/h1&gt;" style="rounded=0;whiteSpace=wrap;html=1;fillColor=#e3c800;strokeColor=#B09500;fontColor=#000000;" parent="WIyWlLk6GJQsqaUBKTNV-1" vertex="1">
          <mxGeometry x="640" y="750" width="120" height="60" as="geometry" />
        </mxCell>
        <mxCell id="Q-gjGeeIeIOGA0u1RUc8-70" value="&lt;h1&gt;user&lt;/h1&gt;" style="rounded=0;whiteSpace=wrap;html=1;fillColor=#fff2cc;strokeColor=#d6b656;" parent="WIyWlLk6GJQsqaUBKTNV-1" vertex="1">
          <mxGeometry x="800" y="750" width="120" height="60" as="geometry" />
        </mxCell>
        <mxCell id="Q-gjGeeIeIOGA0u1RUc8-72" value="&lt;h1&gt;manager&lt;/h1&gt;" style="rounded=0;whiteSpace=wrap;html=1;fillColor=#d5e8d4;strokeColor=#82b366;" parent="WIyWlLk6GJQsqaUBKTNV-1" vertex="1">
          <mxGeometry x="21" y="-335" width="120" height="60" as="geometry" />
        </mxCell>
        <mxCell id="Q-gjGeeIeIOGA0u1RUc8-73" value="관리자 회원가입됨" style="rounded=0;whiteSpace=wrap;html=1;fillColor=#e1d5e7;strokeColor=#9673a6;" parent="WIyWlLk6GJQsqaUBKTNV-1" vertex="1">
          <mxGeometry x="261" y="-335" width="120" height="60" as="geometry" />
        </mxCell>
        <mxCell id="Q-gjGeeIeIOGA0u1RUc8-74" value="관리자 로그인" style="rounded=0;whiteSpace=wrap;html=1;fillColor=#ffe6cc;strokeColor=#d79b00;" parent="WIyWlLk6GJQsqaUBKTNV-1" vertex="1">
          <mxGeometry x="541" y="-438" width="120" height="60" as="geometry" />
        </mxCell>
        <mxCell id="Q-gjGeeIeIOGA0u1RUc8-75" value="&lt;h1&gt;manager&lt;/h1&gt;" style="rounded=0;whiteSpace=wrap;html=1;fillColor=#d5e8d4;strokeColor=#82b366;" parent="WIyWlLk6GJQsqaUBKTNV-1" vertex="1">
          <mxGeometry x="421" y="-438" width="120" height="60" as="geometry" />
        </mxCell>
        <mxCell id="Q-gjGeeIeIOGA0u1RUc8-76" value="관리자 로그인됨" style="rounded=0;whiteSpace=wrap;html=1;fillColor=#e1d5e7;strokeColor=#9673a6;" parent="WIyWlLk6GJQsqaUBKTNV-1" vertex="1">
          <mxGeometry x="661" y="-438" width="120" height="60" as="geometry" />
        </mxCell>
        <mxCell id="Q-gjGeeIeIOGA0u1RUc8-77" value="관리자 로그아웃" style="rounded=0;whiteSpace=wrap;html=1;fillColor=#ffe6cc;strokeColor=#d79b00;" parent="WIyWlLk6GJQsqaUBKTNV-1" vertex="1">
          <mxGeometry x="941" y="-438" width="120" height="60" as="geometry" />
        </mxCell>
        <mxCell id="Q-gjGeeIeIOGA0u1RUc8-78" value="&lt;h1&gt;manager&lt;/h1&gt;" style="rounded=0;whiteSpace=wrap;html=1;fillColor=#d5e8d4;strokeColor=#82b366;" parent="WIyWlLk6GJQsqaUBKTNV-1" vertex="1">
          <mxGeometry x="821" y="-438" width="120" height="60" as="geometry" />
        </mxCell>
        <mxCell id="Q-gjGeeIeIOGA0u1RUc8-79" value="관리자 로그아웃됨" style="rounded=0;whiteSpace=wrap;html=1;fillColor=#e1d5e7;strokeColor=#9673a6;" parent="WIyWlLk6GJQsqaUBKTNV-1" vertex="1">
          <mxGeometry x="1051" y="-438" width="120" height="60" as="geometry" />
        </mxCell>
        <mxCell id="Q-gjGeeIeIOGA0u1RUc8-80" value="&lt;h1&gt;member&lt;/h1&gt;" style="rounded=0;whiteSpace=wrap;html=1;fillColor=#d5e8d4;strokeColor=#82b366;" parent="WIyWlLk6GJQsqaUBKTNV-1" vertex="1">
          <mxGeometry x="21" y="-438" width="120" height="60" as="geometry" />
        </mxCell>
        <mxCell id="Q-gjGeeIeIOGA0u1RUc8-81" value="이용자 프로필 설정" style="rounded=0;whiteSpace=wrap;html=1;fillColor=#ffe6cc;strokeColor=#d79b00;" parent="WIyWlLk6GJQsqaUBKTNV-1" vertex="1">
          <mxGeometry x="141" y="-438" width="120" height="60" as="geometry" />
        </mxCell>
        <mxCell id="Q-gjGeeIeIOGA0u1RUc8-82" value="이용자 프로필 설정됨" style="rounded=0;whiteSpace=wrap;html=1;fillColor=#e1d5e7;strokeColor=#9673a6;" parent="WIyWlLk6GJQsqaUBKTNV-1" vertex="1">
          <mxGeometry x="261" y="-438" width="120" height="60" as="geometry" />
        </mxCell>
        <mxCell id="Q-gjGeeIeIOGA0u1RUc8-83" value="관리자 프로필 설정" style="rounded=0;whiteSpace=wrap;html=1;fillColor=#ffe6cc;strokeColor=#d79b00;" parent="WIyWlLk6GJQsqaUBKTNV-1" vertex="1">
          <mxGeometry x="541" y="-335" width="120" height="60" as="geometry" />
        </mxCell>
        <mxCell id="Q-gjGeeIeIOGA0u1RUc8-84" value="&lt;h1&gt;manager&lt;/h1&gt;" style="rounded=0;whiteSpace=wrap;html=1;fillColor=#d5e8d4;strokeColor=#82b366;" parent="WIyWlLk6GJQsqaUBKTNV-1" vertex="1">
          <mxGeometry x="421" y="-335" width="120" height="60" as="geometry" />
        </mxCell>
        <mxCell id="Q-gjGeeIeIOGA0u1RUc8-85" value="관리자 프로필 설정됨" style="rounded=0;whiteSpace=wrap;html=1;fillColor=#e1d5e7;strokeColor=#9673a6;" parent="WIyWlLk6GJQsqaUBKTNV-1" vertex="1">
          <mxGeometry x="661" y="-335" width="120" height="60" as="geometry" />
        </mxCell>
        <mxCell id="Q-gjGeeIeIOGA0u1RUc8-87" value="&lt;h1 style=&quot;border-color: var(--border-color);&quot;&gt;TODO Aggregate&lt;/h1&gt;" style="rounded=0;whiteSpace=wrap;html=1;fillColor=#fff2cc;strokeColor=#d6b656;" parent="WIyWlLk6GJQsqaUBKTNV-1" vertex="1">
          <mxGeometry x="495" y="-220" width="230" height="90" as="geometry" />
        </mxCell>
        <mxCell id="Q-gjGeeIeIOGA0u1RUc8-89" value="&lt;h1 style=&quot;border-color: var(--border-color);&quot;&gt;할 일 제목&lt;/h1&gt;" style="rounded=0;whiteSpace=wrap;html=1;fillColor=#fff2cc;strokeColor=#d6b656;" parent="WIyWlLk6GJQsqaUBKTNV-1" vertex="1">
          <mxGeometry x="151" y="-110" width="230" height="90" as="geometry" />
        </mxCell>
        <mxCell id="Q-gjGeeIeIOGA0u1RUc8-90" value="&lt;h1 style=&quot;border-color: var(--border-color);&quot;&gt;할 일 세부사항&lt;/h1&gt;" style="rounded=0;whiteSpace=wrap;html=1;fillColor=#fff2cc;strokeColor=#d6b656;" parent="WIyWlLk6GJQsqaUBKTNV-1" vertex="1">
          <mxGeometry x="860" y="-110" width="230" height="90" as="geometry" />
        </mxCell>
        <mxCell id="Nh4K_ZSAPmaA92jvr4Qg-22" style="edgeStyle=orthogonalEdgeStyle;rounded=0;orthogonalLoop=1;jettySize=auto;html=1;entryX=0.5;entryY=1;entryDx=0;entryDy=0;" edge="1" parent="WIyWlLk6GJQsqaUBKTNV-1" source="Q-gjGeeIeIOGA0u1RUc8-91" target="Nh4K_ZSAPmaA92jvr4Qg-1">
          <mxGeometry relative="1" as="geometry">
            <Array as="points">
              <mxPoint x="84" y="140" />
              <mxPoint x="515" y="140" />
            </Array>
          </mxGeometry>
        </mxCell>
        <mxCell id="Q-gjGeeIeIOGA0u1RUc8-91" value="&lt;h1&gt;manager&lt;/h1&gt;" style="rounded=0;whiteSpace=wrap;html=1;fillColor=#d5e8d4;strokeColor=#82b366;" parent="WIyWlLk6GJQsqaUBKTNV-1" vertex="1">
          <mxGeometry x="24" y="65" width="120" height="60" as="geometry" />
        </mxCell>
        <mxCell id="Q-gjGeeIeIOGA0u1RUc8-92" value="&lt;h1&gt;member&lt;/h1&gt;" style="rounded=0;whiteSpace=wrap;html=1;fillColor=#d5e8d4;strokeColor=#82b366;" parent="WIyWlLk6GJQsqaUBKTNV-1" vertex="1">
          <mxGeometry x="24" y="5" width="120" height="60" as="geometry" />
        </mxCell>
        <mxCell id="Nh4K_ZSAPmaA92jvr4Qg-19" style="edgeStyle=orthogonalEdgeStyle;rounded=0;orthogonalLoop=1;jettySize=auto;html=1;" edge="1" parent="WIyWlLk6GJQsqaUBKTNV-1" source="Q-gjGeeIeIOGA0u1RUc8-93" target="Q-gjGeeIeIOGA0u1RUc8-20">
          <mxGeometry relative="1" as="geometry" />
        </mxCell>
        <mxCell id="Q-gjGeeIeIOGA0u1RUc8-93" value="할일 제목 조회됨" style="rounded=0;whiteSpace=wrap;html=1;fillColor=#e1d5e7;strokeColor=#9673a6;" parent="WIyWlLk6GJQsqaUBKTNV-1" vertex="1">
          <mxGeometry x="264" y="35" width="120" height="60" as="geometry" />
        </mxCell>
        <mxCell id="Q-gjGeeIeIOGA0u1RUc8-94" value="할일 제목 생성" style="rounded=0;whiteSpace=wrap;html=1;fontFamily=Tahoma;fillColor=#ffe6cc;strokeColor=#d79b00;" parent="WIyWlLk6GJQsqaUBKTNV-1" vertex="1">
          <mxGeometry x="143" y="175" width="120" height="60" as="geometry" />
        </mxCell>
        <mxCell id="Q-gjGeeIeIOGA0u1RUc8-95" value="&lt;h1&gt;manager&lt;/h1&gt;" style="rounded=0;whiteSpace=wrap;html=1;fillColor=#d5e8d4;strokeColor=#82b366;" parent="WIyWlLk6GJQsqaUBKTNV-1" vertex="1">
          <mxGeometry x="24" y="205" width="120" height="60" as="geometry" />
        </mxCell>
        <mxCell id="Q-gjGeeIeIOGA0u1RUc8-96" value="&lt;h1&gt;member&lt;/h1&gt;" style="rounded=0;whiteSpace=wrap;html=1;fillColor=#d5e8d4;strokeColor=#82b366;" parent="WIyWlLk6GJQsqaUBKTNV-1" vertex="1">
          <mxGeometry x="24" y="145" width="120" height="60" as="geometry" />
        </mxCell>
        <mxCell id="Q-gjGeeIeIOGA0u1RUc8-97" value="할일 제목 생성됨" style="rounded=0;whiteSpace=wrap;html=1;fillColor=#e1d5e7;strokeColor=#9673a6;" parent="WIyWlLk6GJQsqaUBKTNV-1" vertex="1">
          <mxGeometry x="264" y="175" width="120" height="60" as="geometry" />
        </mxCell>
        <mxCell id="Q-gjGeeIeIOGA0u1RUc8-98" value="할일 제목 수정" style="rounded=0;whiteSpace=wrap;html=1;fontFamily=Tahoma;fillColor=#ffe6cc;strokeColor=#d79b00;" parent="WIyWlLk6GJQsqaUBKTNV-1" vertex="1">
          <mxGeometry x="143" y="315" width="120" height="60" as="geometry" />
        </mxCell>
        <mxCell id="Q-gjGeeIeIOGA0u1RUc8-99" value="&lt;h1&gt;manager&lt;/h1&gt;" style="rounded=0;whiteSpace=wrap;html=1;fillColor=#d5e8d4;strokeColor=#82b366;" parent="WIyWlLk6GJQsqaUBKTNV-1" vertex="1">
          <mxGeometry x="24" y="345" width="120" height="60" as="geometry" />
        </mxCell>
        <mxCell id="Q-gjGeeIeIOGA0u1RUc8-100" value="&lt;h1&gt;member&lt;/h1&gt;" style="rounded=0;whiteSpace=wrap;html=1;fillColor=#d5e8d4;strokeColor=#82b366;" parent="WIyWlLk6GJQsqaUBKTNV-1" vertex="1">
          <mxGeometry x="24" y="285" width="120" height="60" as="geometry" />
        </mxCell>
        <mxCell id="Q-gjGeeIeIOGA0u1RUc8-101" value="할일 제목 수정됨" style="rounded=0;whiteSpace=wrap;html=1;fillColor=#e1d5e7;strokeColor=#9673a6;" parent="WIyWlLk6GJQsqaUBKTNV-1" vertex="1">
          <mxGeometry x="264" y="315" width="120" height="60" as="geometry" />
        </mxCell>
        <mxCell id="Q-gjGeeIeIOGA0u1RUc8-102" value="할일 제목 삭제" style="rounded=0;whiteSpace=wrap;html=1;fontFamily=Tahoma;fillColor=#ffe6cc;strokeColor=#d79b00;" parent="WIyWlLk6GJQsqaUBKTNV-1" vertex="1">
          <mxGeometry x="143" y="460" width="120" height="60" as="geometry" />
        </mxCell>
        <mxCell id="Q-gjGeeIeIOGA0u1RUc8-103" value="&lt;h1&gt;manager&lt;/h1&gt;" style="rounded=0;whiteSpace=wrap;html=1;fillColor=#d5e8d4;strokeColor=#82b366;" parent="WIyWlLk6GJQsqaUBKTNV-1" vertex="1">
          <mxGeometry x="24" y="490" width="120" height="60" as="geometry" />
        </mxCell>
        <mxCell id="Q-gjGeeIeIOGA0u1RUc8-104" value="&lt;h1&gt;member&lt;/h1&gt;" style="rounded=0;whiteSpace=wrap;html=1;fillColor=#d5e8d4;strokeColor=#82b366;" parent="WIyWlLk6GJQsqaUBKTNV-1" vertex="1">
          <mxGeometry x="24" y="430" width="120" height="60" as="geometry" />
        </mxCell>
        <mxCell id="Nh4K_ZSAPmaA92jvr4Qg-17" value="" style="edgeStyle=orthogonalEdgeStyle;rounded=0;orthogonalLoop=1;jettySize=auto;html=1;" edge="1" parent="WIyWlLk6GJQsqaUBKTNV-1" source="Q-gjGeeIeIOGA0u1RUc8-105" target="Q-gjGeeIeIOGA0u1RUc8-21">
          <mxGeometry relative="1" as="geometry" />
        </mxCell>
        <mxCell id="Q-gjGeeIeIOGA0u1RUc8-105" value="할일 제목 삭제됨" style="rounded=0;whiteSpace=wrap;html=1;fillColor=#e1d5e7;strokeColor=#9673a6;" parent="WIyWlLk6GJQsqaUBKTNV-1" vertex="1">
          <mxGeometry x="264" y="460" width="120" height="60" as="geometry" />
        </mxCell>
        <mxCell id="Nh4K_ZSAPmaA92jvr4Qg-1" value="관리자는 전체 할일 목록&lt;br&gt;회원은 개인이 작성한 목록을 조정할 권한이 있다." style="rounded=0;whiteSpace=wrap;html=1;fillColor=#dae8fc;strokeColor=#6c8ebf;" vertex="1" parent="WIyWlLk6GJQsqaUBKTNV-1">
          <mxGeometry x="445" y="-60" width="140" height="60" as="geometry" />
        </mxCell>
        <mxCell id="Nh4K_ZSAPmaA92jvr4Qg-2" value="&lt;h1&gt;manager&lt;/h1&gt;" style="rounded=0;whiteSpace=wrap;html=1;fillColor=#d5e8d4;strokeColor=#82b366;" vertex="1" parent="WIyWlLk6GJQsqaUBKTNV-1">
          <mxGeometry x="770" y="65" width="120" height="60" as="geometry" />
        </mxCell>
        <mxCell id="Nh4K_ZSAPmaA92jvr4Qg-3" value="&lt;h1&gt;member&lt;/h1&gt;" style="rounded=0;whiteSpace=wrap;html=1;fillColor=#d5e8d4;strokeColor=#82b366;" vertex="1" parent="WIyWlLk6GJQsqaUBKTNV-1">
          <mxGeometry x="770" y="5" width="120" height="60" as="geometry" />
        </mxCell>
        <mxCell id="Nh4K_ZSAPmaA92jvr4Qg-4" value="할일 세부사항 조회됨" style="rounded=0;whiteSpace=wrap;html=1;fillColor=#e1d5e7;strokeColor=#9673a6;" vertex="1" parent="WIyWlLk6GJQsqaUBKTNV-1">
          <mxGeometry x="1010" y="35" width="120" height="60" as="geometry" />
        </mxCell>
        <mxCell id="Nh4K_ZSAPmaA92jvr4Qg-5" value="할일 세부사항 생성" style="rounded=0;whiteSpace=wrap;html=1;fontFamily=Tahoma;fillColor=#ffe6cc;strokeColor=#d79b00;" vertex="1" parent="WIyWlLk6GJQsqaUBKTNV-1">
          <mxGeometry x="890" y="175" width="120" height="60" as="geometry" />
        </mxCell>
        <mxCell id="Nh4K_ZSAPmaA92jvr4Qg-6" value="&lt;h1&gt;manager&lt;/h1&gt;" style="rounded=0;whiteSpace=wrap;html=1;fillColor=#d5e8d4;strokeColor=#82b366;" vertex="1" parent="WIyWlLk6GJQsqaUBKTNV-1">
          <mxGeometry x="770" y="205" width="120" height="60" as="geometry" />
        </mxCell>
        <mxCell id="Nh4K_ZSAPmaA92jvr4Qg-7" value="&lt;h1&gt;member&lt;/h1&gt;" style="rounded=0;whiteSpace=wrap;html=1;fillColor=#d5e8d4;strokeColor=#82b366;" vertex="1" parent="WIyWlLk6GJQsqaUBKTNV-1">
          <mxGeometry x="770" y="145" width="120" height="60" as="geometry" />
        </mxCell>
        <mxCell id="Nh4K_ZSAPmaA92jvr4Qg-8" value="할일 세부사항 생성됨" style="rounded=0;whiteSpace=wrap;html=1;fillColor=#e1d5e7;strokeColor=#9673a6;" vertex="1" parent="WIyWlLk6GJQsqaUBKTNV-1">
          <mxGeometry x="1010" y="175" width="120" height="60" as="geometry" />
        </mxCell>
        <mxCell id="Nh4K_ZSAPmaA92jvr4Qg-9" value="할일 세부사항 수정" style="rounded=0;whiteSpace=wrap;html=1;fontFamily=Tahoma;fillColor=#ffe6cc;strokeColor=#d79b00;" vertex="1" parent="WIyWlLk6GJQsqaUBKTNV-1">
          <mxGeometry x="890" y="315" width="120" height="60" as="geometry" />
        </mxCell>
        <mxCell id="Nh4K_ZSAPmaA92jvr4Qg-10" value="&lt;h1&gt;manager&lt;/h1&gt;" style="rounded=0;whiteSpace=wrap;html=1;fillColor=#d5e8d4;strokeColor=#82b366;" vertex="1" parent="WIyWlLk6GJQsqaUBKTNV-1">
          <mxGeometry x="770" y="345" width="120" height="60" as="geometry" />
        </mxCell>
        <mxCell id="Nh4K_ZSAPmaA92jvr4Qg-14" value="&lt;h1&gt;manager&lt;/h1&gt;" style="rounded=0;whiteSpace=wrap;html=1;fillColor=#d5e8d4;strokeColor=#82b366;" vertex="1" parent="WIyWlLk6GJQsqaUBKTNV-1">
          <mxGeometry x="770" y="490" width="120" height="60" as="geometry" />
        </mxCell>
        <mxCell id="Nh4K_ZSAPmaA92jvr4Qg-11" value="&lt;h1&gt;member&lt;/h1&gt;" style="rounded=0;whiteSpace=wrap;html=1;fillColor=#d5e8d4;strokeColor=#82b366;" vertex="1" parent="WIyWlLk6GJQsqaUBKTNV-1">
          <mxGeometry x="770" y="285" width="120" height="60" as="geometry" />
        </mxCell>
        <mxCell id="Nh4K_ZSAPmaA92jvr4Qg-12" value="할일 세부사항 수정됨" style="rounded=0;whiteSpace=wrap;html=1;fillColor=#e1d5e7;strokeColor=#9673a6;" vertex="1" parent="WIyWlLk6GJQsqaUBKTNV-1">
          <mxGeometry x="1010" y="315" width="120" height="60" as="geometry" />
        </mxCell>
        <mxCell id="Nh4K_ZSAPmaA92jvr4Qg-13" value="할일 세부사항 삭제" style="rounded=0;whiteSpace=wrap;html=1;fontFamily=Tahoma;fillColor=#ffe6cc;strokeColor=#d79b00;" vertex="1" parent="WIyWlLk6GJQsqaUBKTNV-1">
          <mxGeometry x="890" y="460" width="120" height="60" as="geometry" />
        </mxCell>
        <mxCell id="Nh4K_ZSAPmaA92jvr4Qg-15" value="&lt;h1&gt;member&lt;/h1&gt;" style="rounded=0;whiteSpace=wrap;html=1;fillColor=#d5e8d4;strokeColor=#82b366;" vertex="1" parent="WIyWlLk6GJQsqaUBKTNV-1">
          <mxGeometry x="770" y="430" width="120" height="60" as="geometry" />
        </mxCell>
        <mxCell id="Nh4K_ZSAPmaA92jvr4Qg-16" value="할일 세부사항 삭제됨" style="rounded=0;whiteSpace=wrap;html=1;fillColor=#e1d5e7;strokeColor=#9673a6;" vertex="1" parent="WIyWlLk6GJQsqaUBKTNV-1">
          <mxGeometry x="1010" y="460" width="120" height="60" as="geometry" />
        </mxCell>
        <mxCell id="Nh4K_ZSAPmaA92jvr4Qg-18" style="edgeStyle=orthogonalEdgeStyle;rounded=0;orthogonalLoop=1;jettySize=auto;html=1;entryX=0.5;entryY=1;entryDx=0;entryDy=0;" edge="1" parent="WIyWlLk6GJQsqaUBKTNV-1" source="Q-gjGeeIeIOGA0u1RUc8-21" target="Nh4K_ZSAPmaA92jvr4Qg-13">
          <mxGeometry relative="1" as="geometry" />
        </mxCell>
        <mxCell id="Nh4K_ZSAPmaA92jvr4Qg-20" style="edgeStyle=orthogonalEdgeStyle;rounded=0;orthogonalLoop=1;jettySize=auto;html=1;" edge="1" parent="WIyWlLk6GJQsqaUBKTNV-1" source="Q-gjGeeIeIOGA0u1RUc8-20" target="Nh4K_ZSAPmaA92jvr4Qg-5">
          <mxGeometry relative="1" as="geometry">
            <Array as="points">
              <mxPoint x="950" y="140" />
            </Array>
          </mxGeometry>
        </mxCell>
      </root>
    </mxGraphModel>
  </diagram>
</mxfile>
